# xmcd
#
# Track frame offsets: 
#        150
#        8026
#        14632
#        23333
#        38492
#        47358
#        64319
#        75211
#        83038
#        97069
#        102980
#        108942
#        120421
#        125516
#        134923
#        149554
#        162457
#        167631
#        179297
#        195392
#        206244
#        216669
#        230375
#        249772
#        259246
#
# Disc length: 3504 seconds
#
# Revision: 0
# Processed by: cddbd v1.4PL0 Copyright (c) Steve Scherf et al.
# Submitted via: ExactAudioCopy v0.90b4
#
DISCID=550dae19
DTITLE=Don Walser - "Live" On The Air
DYEAR=1964
DGENRE=Country
TTITLE0=Plainsmen Theme and Intro
TTITLE1=Rocky Rhodes Stomp
TTITLE2=Allen Shell [ad]
TTITLE3=Rainbow On The Rio Colorado
TTITLE4=Midnight Coiffures [ad]
TTITLE5=Honky Tonk
TTITLE6=Rolling Stone From Texas
TTITLE7=Miracle Water [ad]
TTITLE8=Steel Guitar Waltz
TTITLE9=Soldiers' Joy and Raggedy Ann
TTITLE10=Miracle Water [ad2]
TTITLE11=Beggin' To You
TTITLE12=Theme [out]
TTITLE13=Plainsment Theme and Intro
TTITLE14=A String Boogie
TTITLE15=Cowpoke
TTITLE16=Bozo [ad]
TTITLE17=Steel In C
TTITLE18=Don't Worry
TTITLE19=Bozo [ad2]
TTITLE20=Down Yonder
TTITLE21=The Schedule
TTITLE22=Castin' My Lasso
TTITLE23=Abilene
TTITLE24=Theme [signoff]
EXTD=
EXTT0=
EXTT1=
EXTT2=
EXTT3=
EXTT4=
EXTT5=
EXTT6=
EXTT7=
EXTT8=
EXTT9=
EXTT10=
EXTT11=
EXTT12=
EXTT13=
EXTT14=
EXTT15=
EXTT16=
EXTT17=
EXTT18=
EXTT19=
EXTT20=
EXTT21=
EXTT22=
EXTT23=
EXTT24=
PLAYORDER=
